<svg xmlns="http://www.w3.org/2000/svg" xmlns:xlink="http://www.w3.org/1999/xlink" width="500" zoomAndPan="magnify" viewBox="0 0 375 374.999991" height="500" preserveAspectRatio="xMidYMid meet" version="1.2"><defs><clipPath id="c0f857d1e0"><path d="M 0 65.625 L 375 65.625 L 375 309 L 0 309 Z M 0 65.625 "/></clipPath></defs><g id="abe4f533ac"><g clip-rule="nonzero" clip-path="url(#c0f857d1e0)"><path style=" stroke:none;fill-rule:nonzero;fill:#f0b286;fill-opacity:1;" d="M 199.160156 219.410156 C 199.164062 219.433594 199.164062 219.460938 199.171875 219.480469 C 201.824219 238.34375 207.78125 253.902344 215.976562 266.277344 C 216.1875 266.167969 216.414062 266.082031 216.660156 266.03125 L 216.957031 265.972656 C 257.613281 257.566406 280.304688 234.199219 292.054688 209.164062 C 303.839844 184.046875 304.679688 157.292969 301.589844 142.167969 L 301.5625 142.046875 C 301.308594 140.839844 301.066406 140.105469 300.703125 139.773438 C 300.363281 139.464844 299.625 139.296875 298.375 139.199219 C 290.019531 138.535156 278.546875 139.535156 266.101562 142.988281 C 256.265625 145.714844 245.84375 149.96875 235.902344 156.121094 C 235.773438 177.34375 229.09375 200.589844 211.488281 224.109375 C 210.636719 225.246094 209.023438 225.476562 207.886719 224.625 C 206.75 223.773438 206.519531 222.160156 207.371094 221.023438 C 224.484375 198.15625 230.816406 175.621094 230.746094 155.125 C 230.707031 154.867188 230.707031 154.609375 230.738281 154.359375 C 230.699219 151.011719 230.492188 147.722656 230.136719 144.492188 C 226.34375 110.265625 205.691406 83.09375 190.933594 71.933594 C 189.925781 71.171875 189.261719 70.804688 188.796875 70.808594 C 188.328125 70.816406 187.65625 71.203125 186.65625 71.945312 L 186.660156 71.953125 L 186.5625 72.023438 C 186.511719 72.0625 186.460938 72.09375 186.410156 72.128906 C 174.066406 81.429688 157.035156 101.917969 149.191406 128.417969 C 141.34375 154.945312 142.78125 187.488281 167.589844 220.777344 L 167.597656 220.773438 L 167.777344 221.011719 C 168.628906 222.152344 168.398438 223.765625 167.253906 224.617188 C 166.113281 225.472656 164.5 225.238281 163.648438 224.097656 L 163.464844 223.855469 L 163.472656 223.851562 L 163.464844 223.84375 C 146.101562 200.539062 139.683594 177.546875 139.800781 156.53125 C 129.652344 150.140625 118.980469 145.757812 108.917969 142.96875 C 96.472656 139.523438 85 138.523438 76.644531 139.179688 C 75.394531 139.277344 74.65625 139.445312 74.316406 139.753906 C 73.953125 140.085938 73.707031 140.8125 73.457031 142.027344 L 73.429688 142.148438 C 70.339844 157.269531 71.179688 184.027344 82.964844 209.144531 C 94.714844 234.1875 117.40625 257.546875 158.0625 265.953125 L 158.359375 266.011719 C 158.605469 266.0625 158.832031 266.148438 159.042969 266.257812 C 167.234375 253.882812 173.195312 238.324219 175.847656 219.460938 C 175.886719 219.164062 175.976562 218.894531 176.105469 218.640625 C 175.796875 218.15625 175.480469 217.679688 175.175781 217.207031 C 174.859375 216.722656 174.550781 216.253906 174.246094 215.773438 C 174.207031 215.722656 174.175781 215.671875 174.144531 215.613281 C 171.890625 212.121094 169.890625 208.757812 168.636719 204.585938 C 164.441406 190.613281 167.566406 180.734375 173.542969 175.058594 C 174.125 174.503906 174.730469 173.996094 175.363281 173.523438 C 175.28125 167.914062 173.8125 163.167969 171.859375 159.328125 C 170.910156 157.46875 169.851562 155.824219 168.785156 154.402344 C 167.625 154.839844 166.3125 154.855469 164.988281 154.480469 C 163.390625 154.035156 161.734375 152.996094 160.40625 151.472656 C 159.078125 149.941406 158.269531 148.160156 158.042969 146.515625 C 157.765625 144.5 158.316406 142.621094 159.761719 141.363281 C 161.207031 140.097656 163.144531 139.808594 165.105469 140.355469 C 166.707031 140.800781 168.359375 141.839844 169.6875 143.363281 C 171.019531 144.894531 171.824219 146.675781 172.050781 148.320312 C 172.140625 148.972656 172.140625 149.613281 172.058594 150.226562 C 173.589844 152.109375 175.132812 154.371094 176.460938 156.992188 C 178.402344 160.804688 179.925781 165.410156 180.378906 170.78125 C 181.988281 170.171875 183.660156 169.765625 185.351562 169.566406 L 185.304688 143.375 C 184.511719 142.898438 183.8125 142.203125 183.253906 141.351562 C 182.34375 139.960938 181.78125 138.097656 181.78125 136.074219 C 181.78125 134.054688 182.34375 132.1875 183.253906 130.800781 C 184.375 129.089844 186.027344 128.03125 187.945312 128.03125 C 189.863281 128.03125 191.515625 129.089844 192.636719 130.800781 C 193.546875 132.1875 194.109375 134.054688 194.109375 136.074219 C 194.109375 138.097656 193.546875 139.960938 192.636719 141.351562 C 192.042969 142.253906 191.300781 142.976562 190.449219 143.460938 L 190.496094 169.578125 C 192.078125 169.773438 193.640625 170.148438 195.148438 170.695312 C 195.609375 165.363281 197.125 160.792969 199.0625 156.996094 C 200.398438 154.375 201.933594 152.125 203.464844 150.230469 C 203.378906 149.625 203.378906 148.988281 203.472656 148.328125 C 203.695312 146.683594 204.503906 144.898438 205.832031 143.371094 C 207.164062 141.847656 208.816406 140.808594 210.417969 140.363281 C 212.378906 139.8125 214.316406 140.105469 215.761719 141.367188 C 217.207031 142.628906 217.757812 144.507812 217.480469 146.519531 C 217.253906 148.167969 216.445312 149.949219 215.117188 151.476562 C 213.785156 153 212.132812 154.042969 210.535156 154.488281 C 209.210938 154.855469 207.894531 154.839844 206.738281 154.410156 C 205.671875 155.828125 204.613281 157.476562 203.664062 159.335938 C 201.734375 163.128906 200.277344 167.8125 200.164062 173.34375 C 200.890625 173.867188 201.578125 174.441406 202.238281 175.058594 C 208.214844 180.734375 211.339844 190.613281 207.144531 204.585938 C 205.859375 208.875 203.78125 212.300781 201.449219 215.902344 C 201.417969 215.960938 201.378906 216.015625 201.339844 216.070312 C 201.09375 216.445312 200.851562 216.828125 200.597656 217.207031 C 200.132812 217.917969 199.664062 218.648438 199.183594 219.390625 Z M 76.792969 289.980469 C 78.460938 290.511719 80.136719 291.015625 81.824219 291.484375 L 83.222656 286.515625 C 81.597656 286.054688 79.972656 285.570312 78.363281 285.054688 L 76.800781 289.972656 Z M 26.914062 252.628906 C 27.023438 252.828125 27.132812 253.035156 27.242188 253.238281 C 27.382812 253.488281 27.527344 253.746094 27.667969 254 C 27.808594 254.25 27.957031 254.5 28.101562 254.746094 C 28.25 254.992188 28.390625 255.242188 28.539062 255.488281 C 28.785156 255.894531 29.035156 256.300781 29.296875 256.710938 C 29.410156 256.890625 29.527344 257.078125 29.648438 257.257812 L 33.976562 254.4375 C 33.078125 253.054688 32.238281 251.628906 31.457031 250.175781 Z M 32.75 261.640625 C 33.847656 263.0625 34.988281 264.429688 36.191406 265.761719 L 40.011719 262.285156 C 38.902344 261.058594 37.84375 259.796875 36.828125 258.484375 L 32.75 261.648438 Z M 39.953125 269.589844 C 41.257812 270.816406 42.59375 271.976562 43.976562 273.105469 L 47.226562 269.097656 C 45.9375 268.046875 44.691406 266.960938 43.484375 265.816406 L 39.953125 269.582031 Z M 48.242188 276.335938 C 49.695312 277.355469 51.1875 278.335938 52.695312 279.257812 L 55.382812 274.847656 C 53.960938 273.976562 52.566406 273.066406 51.203125 272.105469 L 48.234375 276.335938 Z M 57.3125 281.898438 C 58.875 282.730469 60.449219 283.519531 62.050781 284.269531 L 64.230469 279.585938 C 62.707031 278.878906 61.21875 278.128906 59.734375 277.335938 Z M 66.890625 286.390625 C 68.519531 287.058594 70.160156 287.6875 71.8125 288.289062 L 73.558594 283.429688 C 71.972656 282.855469 70.402344 282.246094 68.839844 281.609375 Z M 299.082031 285.054688 C 297.46875 285.570312 295.847656 286.050781 294.222656 286.515625 L 295.625 291.484375 C 297.308594 291.007812 298.988281 290.511719 300.652344 289.980469 L 299.089844 285.0625 Z M 345.988281 250.171875 C 345.207031 251.621094 344.367188 253.050781 343.472656 254.429688 L 347.796875 257.25 C 347.914062 257.070312 348.027344 256.882812 348.152344 256.703125 C 348.402344 256.296875 348.65625 255.894531 348.90625 255.484375 C 349.054688 255.238281 349.203125 254.984375 349.347656 254.742188 C 349.496094 254.488281 349.636719 254.242188 349.777344 253.992188 C 349.921875 253.738281 350.0625 253.488281 350.203125 253.230469 C 350.3125 253.03125 350.425781 252.824219 350.535156 252.625 Z M 340.613281 258.476562 C 339.597656 259.789062 338.539062 261.054688 337.429688 262.28125 L 341.25 265.753906 C 342.453125 264.421875 343.601562 263.054688 344.691406 261.636719 L 340.613281 258.472656 Z M 333.957031 265.824219 C 332.742188 266.96875 331.496094 268.050781 330.210938 269.105469 L 333.464844 273.113281 C 334.851562 271.984375 336.191406 270.816406 337.488281 269.59375 L 333.957031 265.832031 Z M 326.234375 272.105469 C 324.871094 273.066406 323.480469 273.976562 322.058594 274.847656 L 324.742188 279.257812 C 326.261719 278.335938 327.753906 277.355469 329.199219 276.335938 L 326.230469 272.105469 Z M 317.707031 277.335938 C 316.222656 278.121094 314.730469 278.871094 313.207031 279.585938 L 315.390625 284.269531 C 316.992188 283.519531 318.566406 282.730469 320.128906 281.898438 Z M 308.59375 281.609375 C 307.03125 282.246094 305.460938 282.855469 303.875 283.429688 L 305.621094 288.289062 C 307.273438 287.6875 308.914062 287.058594 310.542969 286.390625 Z M 180.09375 225.445312 C 174.570312 256.574219 160.039062 278.652344 141.40625 292.183594 C 128.148438 301.8125 112.828125 307.09375 97.199219 308.21875 C 81.605469 309.335938 65.699219 306.292969 51.25 299.289062 C 29.015625 288.507812 10.230469 268.34375 1.292969 239.464844 C 0.414062 236.640625 0 234.742188 0.398438 232.804688 C 0.828125 230.785156 2.015625 229.214844 4.339844 227.164062 C 14.648438 218.054688 26.757812 212.316406 39.328125 209.3125 C 51.792969 206.335938 64.695312 206.046875 76.710938 207.828125 C 65.910156 182.625 65.265625 156.332031 68.371094 141.144531 L 68.394531 141.019531 C 68.875 138.710938 69.539062 137.132812 70.828125 135.964844 C 72.132812 134.777344 73.792969 134.25 76.226562 134.0625 C 85.082031 133.359375 97.195312 134.402344 110.273438 138.03125 C 119.9375 140.710938 130.148438 144.804688 139.988281 150.652344 C 140.515625 142.382812 142.027344 134.457031 144.242188 126.980469 C 152.433594 99.304688 170.316406 77.828125 183.289062 68.039062 C 183.347656 67.988281 183.402344 67.945312 183.464844 67.898438 L 183.5625 67.828125 L 183.570312 67.835938 L 183.574219 67.828125 C 185.453125 66.425781 186.996094 65.699219 188.753906 65.679688 C 190.515625 65.660156 192.097656 66.363281 194.039062 67.835938 C 209.566406 79.578125 231.28125 108.105469 235.257812 143.945312 C 235.488281 146.011719 235.65625 148.101562 235.761719 150.214844 C 245.367188 144.601562 255.300781 140.644531 264.71875 138.039062 C 277.800781 134.410156 289.910156 133.363281 298.765625 134.066406 C 301.199219 134.261719 302.859375 134.789062 304.164062 135.972656 C 305.453125 137.140625 306.121094 138.714844 306.597656 141.027344 L 306.625 141.148438 C 309.726562 156.339844 309.082031 182.632812 298.28125 207.835938 C 310.296875 206.058594 323.199219 206.34375 335.667969 209.320312 C 348.234375 212.320312 360.351562 218.058594 370.65625 227.167969 C 372.980469 229.222656 374.167969 230.796875 374.59375 232.8125 C 375 234.746094 374.582031 236.644531 373.703125 239.472656 C 364.761719 268.347656 345.976562 288.515625 323.742188 299.296875 C 309.289062 306.308594 293.390625 309.339844 277.792969 308.222656 C 262.171875 307.109375 246.84375 301.820312 233.585938 292.1875 C 215.175781 278.8125 200.757812 257.082031 195.089844 226.515625 C 193.207031 230.371094 191.523438 234.953125 190.390625 240.828125 C 190.128906 242.230469 188.773438 243.144531 187.378906 242.875 C 186.292969 242.667969 185.5 241.808594 185.324219 240.785156 C 184.089844 234.375 182.195312 229.5 180.09375 225.4375 Z M 177.390625 211.179688 C 180.566406 210.085938 183.902344 209.378906 187.359375 209.292969 C 190.921875 209.210938 194.574219 209.796875 198.25 211.320312 C 199.882812 208.695312 201.28125 206.097656 202.171875 203.140625 C 205.710938 191.347656 203.355469 183.277344 198.660156 178.816406 C 195.703125 176.007812 191.792969 174.609375 187.867188 174.609375 C 183.941406 174.609375 180.039062 176.007812 177.074219 178.816406 C 172.375 183.277344 170.019531 191.347656 173.5625 203.140625 C 174.433594 206.046875 175.800781 208.601562 177.398438 211.179688 Z M 187.472656 214.4375 C 185.027344 214.496094 182.613281 214.949219 180.277344 215.660156 C 182.898438 219.699219 185.671875 224.21875 187.863281 230.402344 C 190.035156 224.257812 192.785156 219.757812 195.394531 215.738281 C 192.714844 214.753906 190.0625 214.375 187.480469 214.4375 Z M 155.855469 270.761719 C 115.160156 262.003906 91.835938 238.742188 79.324219 213.484375 C 66.96875 211.203125 53.472656 211.21875 40.519531 214.308594 C 28.734375 217.125 17.382812 222.496094 7.746094 231.011719 C 6.308594 232.28125 5.601562 233.101562 5.441406 233.851562 C 5.269531 234.683594 5.585938 235.9375 6.210938 237.949219 C 14.691406 265.339844 32.464844 284.449219 53.492188 294.648438 C 67.125 301.257812 82.125 304.125 96.839844 303.074219 C 111.523438 302.019531 125.925781 297.054688 138.378906 288.003906 C 144.789062 283.351562 150.683594 277.613281 155.847656 270.761719 Z M 219.136719 270.761719 C 224.304688 277.613281 230.203125 283.351562 236.605469 288.003906 C 249.066406 297.054688 263.460938 302.019531 278.148438 303.074219 C 292.859375 304.125 307.863281 301.257812 321.496094 294.648438 C 342.515625 284.457031 360.292969 265.347656 368.777344 237.949219 C 369.402344 235.9375 369.71875 234.675781 369.546875 233.851562 C 369.390625 233.101562 368.679688 232.28125 367.242188 231.011719 C 357.609375 222.496094 346.261719 217.128906 334.464844 214.308594 C 321.515625 211.21875 308.019531 211.203125 295.660156 213.484375 C 283.15625 238.742188 259.828125 262.003906 219.132812 270.761719 Z M 219.136719 270.761719 "/></g></g></svg>